HIERARCHY
ROOT Pelvis
{
	OFFSET 0.000000 0.000000 0.000000
	CHANNELS 6 Xposition Yposition Zposition Xrotation Yrotation Zrotation
	JOINT LeftUpLeg_virtual
	{
		OFFSET 0.000000 0.000000 0.000000
		CHANNELS 3 Xrotation Yrotation Zrotation
		JOINT LeftUpLeg
		{
			OFFSET 18.735201 -5.666702 -4.541200
			CHANNELS 3 Xrotation Yrotation Zrotation
			JOINT LeftLeg
			{
				OFFSET -0.021200 -31.938179 0.493100
				CHANNELS 3 Xrotation Yrotation Zrotation
				JOINT LeftFoot
				{
					OFFSET 0.021200 -31.938179 -4.336299
					CHANNELS 3 Xrotation Yrotation Zrotation
					JOINT LeftToeBase
					{
						OFFSET 0.943001 -26.722000 15.023500
						CHANNELS 3 Xrotation Yrotation Zrotation
						End Site
						{
							OFFSET 0 0 0
						}
					}
				}
			}
		}
	}
	JOINT RightUpLeg_virtual
	{
		OFFSET 0.000000 0.000000 0.000000
		CHANNELS 3 Xrotation Yrotation Zrotation
		JOINT RightUpLeg
		{
			OFFSET -18.735201 -5.666702 -4.541200
			CHANNELS 3 Xrotation Yrotation Zrotation
			JOINT RightLeg
			{
				OFFSET 0.018946 -31.938133 0.493100
				CHANNELS 3 Xrotation Yrotation Zrotation
				JOINT RightFoot
				{
					OFFSET -0.018946 -31.938126 -4.336299
					CHANNELS 3 Xrotation Yrotation Zrotation
					JOINT RightToeBase
					{
						OFFSET -0.943001 -26.722004 15.023500
						CHANNELS 3 Xrotation Yrotation Zrotation
						End Site
						{
							OFFSET 0 0 0
						}
					}
				}
			}
		}
	}
	JOINT Hips_virtual
	{
		OFFSET 0.000000 0.000000 0.000000
		CHANNELS 3 Xrotation Yrotation Zrotation
		JOINT Hips
		{
			OFFSET -0.000000 -0.000000 -0.000000
			CHANNELS 3 Xrotation Yrotation Zrotation
			JOINT Spine
			{
				OFFSET 0.000000 10.199997 -0.299500
				CHANNELS 3 Xrotation Yrotation Zrotation
				JOINT Spine1
				{
					OFFSET 0.000000 11.900002 -1.516600
					CHANNELS 3 Xrotation Yrotation Zrotation
					JOINT Spine2
					{
						OFFSET 0.000000 13.600006 -2.842500
						CHANNELS 3 Xrotation Yrotation Zrotation
						JOINT Neck_virtual
						{
							OFFSET 0.000000 0.000000 0.000000
							CHANNELS 3 Xrotation Yrotation Zrotation
							JOINT Neck
							{
								OFFSET 0.000000 9.624100 -2.890100
								CHANNELS 3 Xrotation Yrotation Zrotation
								JOINT Head
								{
									OFFSET 0.000000 14.068802 -1.351900
									CHANNELS 3 Xrotation Yrotation Zrotation
									End Site
									{
										OFFSET 0 0 0
									}
								}
							}
						}
						JOINT LeftShoulder_virtual
						{
							OFFSET 0.000000 0.000000 0.000000
							CHANNELS 3 Xrotation Yrotation Zrotation
							JOINT LeftShoulder
							{
								OFFSET 15.263000 10.923401 -0.547700
								CHANNELS 3 Xrotation Yrotation Zrotation
								JOINT LeftArm
								{
									OFFSET 25.438599 -2.830597 -13.032500
									CHANNELS 3 Xrotation Yrotation Zrotation
									JOINT LeftForeArm
									{
										OFFSET 29.960503 0.000000 0.000000
										CHANNELS 3 Xrotation Yrotation Zrotation
										JOINT LeftHand
										{
											OFFSET 27.849251 0.000000 0.000000
											CHANNELS 3 Xrotation Yrotation Zrotation
											End Site
											{
												OFFSET 0 0 0
											}
										}
									}
								}
							}
						}
						JOINT RightShoulder_virtual
						{
							OFFSET 0.000000 0.000000 0.000000
							CHANNELS 3 Xrotation Yrotation Zrotation
							JOINT RightShoulder
							{
								OFFSET -15.263000 10.923401 -0.547700
								CHANNELS 3 Xrotation Yrotation Zrotation
								JOINT RightArm
								{
									OFFSET -25.438599 -2.830597 -13.032500
									CHANNELS 3 Xrotation Yrotation Zrotation
									JOINT RightForeArm
									{
										OFFSET -29.960503 0.000000 0.000000
										CHANNELS 3 Xrotation Yrotation Zrotation
										JOINT RightHand
										{
											OFFSET -27.849251 0.000000 0.000000
											CHANNELS 3 Xrotation Yrotation Zrotation
											End Site
											{
												OFFSET 0 0 0
											}
										}
									}
								}
							}
						}
					}
				}
			}
		}
	}
}
MOTION
Frames: 5
Frame Time: 0.03333333
-1.627939 89.504921 0.759790 0.000000 0.000000 0.000000 3.634083 -40.168786 -3.175671 -35.135255 1.512618 9.709590 46.528639 -12.708280 3.218335 -5.623561 -14.757308 -9.336014 0.000000 0.000000 0.000000 14.902173 -16.248626 5.394145 -11.189465 -11.774012 -11.489990 34.024915 4.033430 -3.286115 -15.985464 1.717400 8.570648 0.000000 0.000000 0.000000 3.625474 2.068847 -0.357863 6.125697 -20.470424 7.579909 8.047948 10.355497 1.993158 2.990780 6.227455 1.341321 0.000000 0.000000 0.000000 4.186175 5.630460 -0.068426 -0.379229 1.701997 0.885526 0.000000 0.000000 0.000000 4.182587 6.859816 -1.183272 1.416310 4.686084 -4.734222 -13.653529 -25.166004 -62.737029 1.306457 -70.762768 -4.872495 0.000000 0.000000 0.000000 6.180604 6.681019 1.927306 -0.994205 21.352645 18.807389 -11.794190 40.552606 37.883098 10.873297 74.173464 -8.672522 0.000000 0.000000 0.000000 
-1.561991 89.506134 0.878103 0.000000 0.000000 0.000000 3.525235 -39.953878 -3.276403 -35.220612 1.576566 9.660493 46.482470 -12.747660 3.278972 -5.661770 -14.822291 -9.269636 0.000000 0.000000 0.000000 15.032218 -16.218723 5.453292 -10.965629 -11.793760 -11.403104 33.816922 4.118603 -3.327716 -16.157678 1.808622 8.538528 0.000000 0.000000 0.000000 3.686109 2.174262 -0.372366 5.990612 -20.485752 7.468270 7.984098 10.316898 2.005229 2.968255 6.227871 1.342771 0.000000 0.000000 0.000000 4.220343 5.644627 -0.079303 -0.387874 1.680169 0.881796 0.000000 0.000000 0.000000 4.201879 6.895427 -1.183851 1.415700 4.608516 -4.723911 -13.715203 -25.289834 -62.960172 1.287565 -71.160572 -4.892719 0.000000 0.000000 0.000000 6.223154 6.719878 1.899485 -0.986853 21.187484 18.915896 -12.058566 40.729012 37.891304 11.112315 74.330995 -8.999105 0.000000 0.000000 0.000000 
-1.441022 89.518936 1.085183 0.000000 0.000000 0.000000 3.315003 -39.588084 -3.460500 -35.389836 1.683028 9.569910 46.410691 -12.819227 3.393217 -5.727030 -14.940581 -9.144382 0.000000 0.000000 0.000000 15.259367 -16.170691 5.556404 -10.569648 -11.828709 -11.248858 33.424463 4.273034 -3.396173 -16.481322 1.969385 8.489643 0.000000 0.000000 0.000000 3.819114 2.353624 -0.387965 5.680812 -20.502126 7.224300 7.880031 10.247485 2.024827 2.936674 6.224370 1.342974 0.000000 0.000000 0.000000 4.284809 5.670653 -0.098384 -0.406103 1.637088 0.874142 0.000000 0.000000 0.000000 4.237994 6.957743 -1.185715 1.413608 4.468127 -4.706338 -13.801253 -25.496767 -63.342751 1.218038 -71.899564 -4.957753 0.000000 0.000000 0.000000 6.302970 6.788077 1.846615 -0.975007 20.869131 19.099125 -12.571477 41.054655 37.910350 11.557729 74.620609 -9.610054 0.000000 0.000000 0.000000 
-1.284136 89.558220 1.333854 0.000000 0.000000 0.000000 3.018331 -39.173413 -3.700665 -35.636095 1.798951 9.449180 46.344835 -12.911739 3.548630 -5.802221 -15.093260 -8.974373 0.000000 0.000000 0.000000 15.532617 -16.117182 5.679629 -10.082688 -11.870666 -11.057967 32.887682 4.471186 -3.468908 -16.920964 2.165748 8.447158 0.000000 0.000000 0.000000 4.041849 2.561898 -0.384833 5.145263 -20.504805 6.819374 7.774797 10.161088 2.043016 2.915831 6.210975 1.337493 0.000000 0.000000 0.000000 4.372399 5.704258 -0.121532 -0.435473 1.574181 0.862385 0.000000 0.000000 0.000000 4.286637 7.032744 -1.189185 1.408922 4.290474 -4.685971 -13.857133 -25.720568 -63.782260 1.045492 -72.881055 -5.108049 0.000000 0.000000 0.000000 6.410564 6.869864 1.773263 -0.961976 20.419158 19.302637 -13.290600 41.478574 37.940137 12.147478 74.995921 -10.426892 0.000000 0.000000 0.000000 
-1.113875 89.634613 1.577107 0.000000 0.000000 0.000000 2.658044 -38.811269 -3.969030 -35.942378 1.893531 9.308844 46.313740 -13.013704 3.729760 -5.871401 -15.260043 -8.778204 0.000000 0.000000 0.000000 15.804098 -16.057181 5.799313 -9.583073 -11.908927 -10.860440 32.253079 4.687135 -3.525428 -17.435663 2.365186 8.431261 0.000000 0.000000 0.000000 4.368171 2.764807 -0.346561 4.360656 -20.490574 6.235494 7.709369 10.074395 2.048060 2.921717 6.183744 1.321963 0.000000 0.000000 0.000000 4.473605 5.739941 -0.144604 -0.477553 1.494345 0.846686 0.000000 0.000000 0.000000 4.342749 7.106562 -1.192920 1.401045 4.105830 -4.666580 -13.840275 -25.891837 -64.174873 0.714255 -73.986330 -5.386531 0.000000 0.000000 0.000000 6.534077 6.948210 1.684535 -0.948741 19.865954 19.470533 -14.137097 41.932717 37.971586 12.799086 75.399285 -11.347635 0.000000 0.000000 0.000000 
